<svg xmlns="http://www.w3.org/2000/svg" viewBox="0 0 600 320" fill="none">
  <defs><filter id="shadow" x="-30%" y="-30%" width="160%" height="180%"><feDropShadow dx="0" dy="9" stdDeviation="8" flood-color="#4c503b" flood-opacity=".16"/></filter><clipPath id="picture"><path d="M177 79h252v158H177z"/></clipPath></defs>
  <path fill="#e2e5d7" d="M0 0h600v320H0z"/>
  <ellipse cx="304" cy="267" rx="178" ry="16" fill="#748064" opacity=".09"/>
  <g filter="url(#shadow)">
    <g transform="rotate(-11 293 169)"><rect x="141" y="61" width="297" height="216" rx="2" fill="#f1eadb" stroke="#c9bda5"/><path fill="#b7bca2" d="M154 74h271v177H154z"/></g>
    <g transform="rotate(6 300 166)"><rect x="154" y="55" width="294" height="211" rx="2" fill="#f9f4e8" stroke="#c9bda5"/><path fill="#c6ae84" d="M168 69h266v172H168z"/></g>
    <g transform="rotate(-3 303 167)"><rect x="162" y="64" width="282" height="199" rx="2" fill="#fffcf3" stroke="#c9bda5"/>
      <g clip-path="url(#picture)"><path fill="#d6d5b8" d="M177 79h252v158H177z"/><circle cx="375" cy="113" r="19" fill="#f0deb0"/><path d="m158 185 87-76 74 68 58-35 76 68v43H158z" fill="#9da58b"/><path d="M169 196c53-32 93-18 131-4s82 5 137-18v70H169z" fill="#707e64"/><path d="M176 222c64-26 125 14 179-8 29-12 52-8 81-3v35H176z" fill="#a2aa81"/></g>
    </g>
  </g>
</svg>
